<svg version="1" xmlns="http://www.w3.org/2000/svg" width="800" height="800" viewBox="0 0 600.000000 600.000000"><path d="M371.5 159c-20.5 1.4-33.8 5.8-54.8 17.8-11.9 6.9-21.6 13.6-32.5 22.5-10.9 8.8-14.5 14.3-22.2 33.7-5.3 13.2-6 14.3-14.6 20-12.3 8.4-26.7 25.6-33.9 40.5-2.3 4.9-5.2 9.8-6.2 10.8-2.1 1.8-41.6 19.5-51.3 22.9-12 4.2-80.4 20.4-90.4 21.4-3.6.3-11-.1-18.1-1-19.4-2.6-25.2-2.1-30.4 2.7-3.1 2.9-7.2 11.3-10.6 21.5-2.4 7.3-2.6 9.2-2 15.5.4 4 .8 13 .9 20.2.1 10.9.4 13.7 2.2 17.6 4.5 9.6 12 15 23.1 16.5 4.2.5 6 .2 9.7-1.5 3.7-1.9 5.5-3.8 10-10.9 8.3-13.3 7.6-12.6 16.8-15 16.5-4.3 81.3-18.4 102.3-22.2 19.1-3.4 34.2-4.3 54.3-3.1 11.7.6 19.3 1.5 21.6 2.5 2 .8 6.2 4 9.4 6.9 3.1 3 6.7 5.9 7.9 6.6 1.4.7 10.4 1.1 27.1 1.1 13.7 0 27.4.5 30.3 1 8.1 1.5 22.8 9 29.4 15 7.3 6.6 9.2 7.4 26.4 10.5 7.8 1.4 19.7 3.9 26.4 5.5 18.6 4.6 22.7 4.2 51.7-5 8.5-2.6 17.5-5.4 20-6 2.4-.7 10.2-5 17.2-9.7 7-4.6 16.9-10.2 22-12.4 13.4-5.8 15.1-7.4 20.8-19.3 2.7-5.6 6-11.4 7.3-12.8 1.3-1.4 8.5-6.6 15.9-11.6 7.5-5 15.3-10.8 17.3-12.9 5.1-5.2 16.8-29.4 19.4-40.3 1.7-6.8 2.1-11.8 2.1-24.5.1-16.1-.7-23.1-3.5-31.6-2.2-6.4-5.1-10-13.9-16.9-4.2-3.4-10.1-9.1-13.1-12.8-2.9-3.7-7.3-9.2-9.7-12.2-5.2-6.5-9.4-9.5-14.5-10.5-7.1-1.3-14.1-5.6-32.8-20-10.3-8-21.6-15.9-25.2-17.7l-6.4-3.1-13 1.3c-10.5 1.1-15.3 1.1-25.2.1-15.6-1.6-51.7-2.2-67.2-1.1z"/></svg>